<svg width="21" height="21" viewBox="0 0 21 21" fill="none" xmlns="http://www.w3.org/2000/svg">
<path d="M19 7.23438C19 7.20677 18.9975 7.17887 18.9971 7.15137L18.9062 7.24316L18.9053 7.24414C18.2732 7.86969 17.4196 8.22059 16.5303 8.2207C15.6408 8.2207 14.7865 7.86983 14.1543 7.24414C13.8409 6.93403 13.5927 6.56412 13.4229 6.15723C13.253 5.75033 13.165 5.31395 13.165 4.87305C13.165 4.43216 13.2531 3.99576 13.4229 3.58887C13.5925 3.18241 13.8404 2.81283 14.1533 2.50293L14.5879 2.07031C14.306 2.02416 14.0164 2.00001 13.7207 2C10.7982 2 8.44141 4.35096 8.44141 7.23438V7.23535C8.44048 7.96308 8.59257 8.68289 8.88867 9.34766C9.05771 9.72705 8.97534 10.1722 8.68066 10.4648L2.39648 16.7041L2.39551 16.7051C2.2703 16.8291 2.1704 16.977 2.10254 17.1396C2.03473 17.3024 2 17.477 2 17.6533C2.00001 17.8296 2.03471 18.0043 2.10254 18.167C2.17041 18.3297 2.27026 18.4775 2.39551 18.6016C2.65296 18.8565 3.00093 19 3.36328 19C3.72565 19 4.07358 18.8566 4.33105 18.6016L10.6699 12.3086L10.7822 12.2129C11.0578 12.0103 11.4222 11.9602 11.7461 12.0898C12.3544 12.3333 13.0202 12.4688 13.7207 12.4688C16.6425 12.4687 18.9998 10.1186 19 7.23438ZM15.165 4.87305C15.165 5.04956 15.2006 5.2248 15.2686 5.3877C15.3196 5.50976 15.3885 5.62312 15.4727 5.72461L15.5615 5.82227L15.6621 5.91309C15.9063 6.11129 16.213 6.2207 16.5303 6.2207C16.8927 6.22059 17.2404 6.07721 17.498 5.82227L18.9238 4.40723L19.0195 4.32422C19.2529 4.14502 19.5554 4.07633 19.8467 4.1416C20.1795 4.21619 20.4519 4.45478 20.5684 4.77539C20.8473 5.54354 21 6.37262 21 7.23438C20.9998 11.2367 17.7335 14.4687 13.7207 14.4688C12.9974 14.4688 12.2976 14.363 11.6367 14.167L5.73926 20.0225L5.73828 20.0234C5.10633 20.6492 4.25264 21 3.36328 21C2.47391 21 1.62022 20.6492 0.988281 20.0234C0.675158 19.7134 0.426504 19.3442 0.256836 18.9375C0.0871742 18.5308 9.32506e-06 18.094 0 17.6533C0 17.2126 0.0871652 16.7759 0.256836 16.3691C0.426503 15.9624 0.675134 15.5933 0.988281 15.2832L6.80859 9.50391C6.56565 8.77276 6.44041 8.00594 6.44141 7.23242C6.44226 3.23156 9.70778 0 13.7207 0C14.8562 1.53885e-05 15.9341 0.258844 16.8945 0.72168C17.1869 0.862576 17.3924 1.13704 17.4463 1.45703C17.5 1.77723 17.3945 2.10429 17.1641 2.33301L15.5625 3.92285L15.5615 3.92383C15.4361 4.04786 15.3365 4.19566 15.2686 4.3584C15.2006 4.5213 15.165 4.69651 15.165 4.87305Z" fill="currentColor"/>
</svg>
